--40001LOG 18:07:22:048487900 Waiting for file /home/seluser/videos/vid_chrome_or_firefox_40001* to be created...
Won't start video recording due to VIDEO env var false
ffmpeg version 2.8.17-0ubuntu0.1 Copyright (c) 2000-2020 the FFmpeg developers
  built with gcc 5.4.0 (Ubuntu 5.4.0-6ubuntu1~16.04.12) 20160609
  configuration: --prefix=/usr --extra-version=0ubuntu0.1 --build-suffix=-ffmpeg --toolchain=hardened --libdir=/usr/lib/x86_64-linux-gnu --incdir=/usr/include/x86_64-linux-gnu --cc=cc --cxx=g++ --enable-gpl --enable-shared --disable-stripping --disable-decoder=libopenjpeg --disable-decoder=libschroedinger --enable-avresample --enable-avisynth --enable-gnutls --enable-ladspa --enable-libass --enable-libbluray --enable-libbs2b --enable-libcaca --enable-libcdio --enable-libflite --enable-libfontconfig --enable-libfreetype --enable-libfribidi --enable-libgme --enable-libgsm --enable-libmodplug --enable-libmp3lame --enable-libopenjpeg --enable-libopus --enable-libpulse --enable-librtmp --enable-libschroedinger --enable-libshine --enable-libsnappy --enable-libsoxr --enable-libspeex --enable-libssh --enable-libtheora --enable-libtwolame --enable-libvorbis --enable-libvpx --enable-libwavpack --enable-libwebp --enable-libx265 --enable-libxvid --enable-libzvbi --enable-openal --enable-opengl --enable-x11grab --enable-libdc1394 --enable-libiec61883 --enable-libzmq --enable-frei0r --enable-libx264 --enable-libopencv
  libavutil      54. 31.100 / 54. 31.100
  libavcodec     56. 60.100 / 56. 60.100
  libavformat    56. 40.101 / 56. 40.101
  libavdevice    56.  4.100 / 56.  4.100
  libavfilter     5. 40.101 /  5. 40.101
  libavresample   2.  1.  0 /  2.  1.  0
  libswscale      3.  1.101 /  3.  1.101
  libswresample   1.  2.101 /  1.  2.101
  libpostproc    53.  3.100 / 53.  3.100
Input #0, x11grab, from ':26.0':
  Duration: N/A, start: 1605197242.212991, bitrate: N/A
    Stream #0:0: Video: rawvideo (BGR[0] / 0x524742), bgr0, 1366x768, 10 fps, 10 tbr, 1000k tbn, 10 tbc
[libx264 @ 0x14f1320] using cpu capabilities: MMX2 SSE2Fast SSSE3 SSE4.2 AVX FMA3 AVX2 LZCNT BMI2
[libx264 @ 0x14f1320] profile Constrained Baseline, level 3.2
[libx264 @ 0x14f1320] 264 - core 148 r2643 5c65704 - H.264/MPEG-4 AVC codec - Copyleft 2003-2015 - http://www.videolan.org/x264.html - options: cabac=0 ref=1 deblock=0:0:0 analyse=0:0 me=dia subme=0 psy=1 psy_rd=1.00:0.00 mixed_ref=0 me_range=16 chroma_me=1 trellis=0 8x8dct=0 cqm=0 deadzone=21,11 fast_pskip=1 chroma_qp_offset=0 threads=3 lookahead_threads=1 sliced_threads=0 nr=0 decimate=1 interlaced=0 bluray_compat=0 constrained_intra=0 bframes=0 weightp=0 keyint=250 keyint_min=10 scenecut=0 intra_refresh=0 rc=crf mbtree=0 crf=23.0 qcomp=0.60 qpmin=0 qpmax=69 qpstep=4 ip_ratio=1.40 aq=0
Output #0, matroska, to '/home/seluser/videos/vid_chrome_or_firefox_40001.mkv':
  Metadata:
    encoder         : Lavf56.40.101
    Stream #0:0: Video: h264 (libx264) (H264 / 0x34363248), yuv420p, 1366x768, q=-1--1, 10 fps, 1k tbn, 10 tbc
    Metadata:
      encoder         : Lavc56.60.100 libx264
Stream mapping:
  Stream #0:0 -> #0:0 (rawvideo (native) -> h264 (libx264))
Press [q] to stop, [?] for help
[swscaler @ 0x14fcca0] Warning: data is not aligned! This can lead to a speedloss
frame=    8 fps=0.0 q=10.0 size=      25kB time=00:00:00.40 bitrate= 512.6kbits/s    
frame=   13 fps= 12 q=9.0 size=      28kB time=00:00:00.90 bitrate= 253.6kbits/s    
frame=   19 fps= 11 q=9.0 size=      29kB time=00:00:01.50 bitrate= 155.7kbits/s    
frame=   24 fps= 11 q=9.0 size=      29kB time=00:00:02.00 bitrate= 119.5kbits/s    
frame=   30 fps= 11 q=10.0 size=      51kB time=00:00:02.60 bitrate= 162.2kbits/s    
frame=   35 fps= 10 q=9.0 size=      55kB time=00:00:03.10 bitrate= 145.3kbits/s    
frame=   41 fps= 10 q=9.0 size=      56kB time=00:00:03.70 bitrate= 123.7kbits/s    
frame=   47 fps= 10 q=14.0 size=      83kB time=00:00:04.30 bitrate= 157.8kbits/s    
frame=   52 fps= 10 q=10.0 size=      96kB time=00:00:04.80 bitrate= 163.8kbits/s    
frame=   58 fps= 10 q=9.0 size=      99kB time=00:00:05.40 bitrate= 150.3kbits/s    
frame=   63 fps= 10 q=9.0 size=     100kB time=00:00:05.90 bitrate= 139.1kbits/s    
frame=   68 fps= 10 q=9.0 size=     101kB time=00:00:06.40 bitrate= 129.3kbits/s    
frame=   74 fps= 10 q=9.0 size=     103kB time=00:00:07.00 bitrate= 120.1kbits/s    
frame=   80 fps= 10 q=9.0 size=     103kB time=00:00:07.60 bitrate= 111.6kbits/s    
frame=   86 fps= 10 q=11.0 size=     120kB time=00:00:08.20 bitrate= 120.1kbits/s    
frame=   92 fps= 10 q=9.0 size=     127kB time=00:00:08.80 bitrate= 118.6kbits/s    
frame=   98 fps= 10 q=9.0 size=     129kB time=00:00:09.40 bitrate= 112.4kbits/s    
frame=  104 fps= 10 q=9.0 size=     130kB time=00:00:10.00 bitrate= 106.8kbits/s    
frame=  109 fps= 10 q=9.0 size=     131kB time=00:00:10.50 bitrate= 102.5kbits/s    
frame=  114 fps= 10 q=9.0 size=     133kB time=00:00:11.00 bitrate=  98.8kbits/s    
frame=  119 fps= 10 q=9.0 size=     133kB time=00:00:11.50 bitrate=  94.9kbits/s    
frame=  125 fps= 10 q=9.0 size=     135kB time=00:00:12.10 bitrate=  91.4kbits/s    
frame=  130 fps= 10 q=9.0 size=     136kB time=00:00:12.60 bitrate=  88.4kbits/s    
frame=  136 fps= 10 q=9.0 size=     137kB time=00:00:13.20 bitrate=  85.1kbits/s    
frame=  142 fps= 10 q=9.0 size=     138kB time=00:00:13.80 bitrate=  82.2kbits/s    
frame=  148 fps= 10 q=9.0 size=     139kB time=00:00:14.40 bitrate=  79.4kbits/s    
frame=  153 fps= 10 q=9.0 size=     141kB time=00:00:14.90 bitrate=  77.5kbits/s    
frame=  158 fps= 10 q=9.0 size=     142kB time=00:00:15.40 bitrate=  75.4kbits/s    
frame=  164 fps= 10 q=9.0 size=     143kB time=00:00:16.00 bitrate=  73.3kbits/s    
frame=  169 fps= 10 q=9.0 size=     144kB time=00:00:16.50 bitrate=  71.6kbits/s    
frame=  175 fps= 10 q=9.0 size=     145kB time=00:00:17.10 bitrate=  69.7kbits/s    
frame=  181 fps= 10 q=9.0 size=     147kB time=00:00:17.70 bitrate=  68.0kbits/s    
frame=  187 fps= 10 q=9.0 size=     148kB time=00:00:18.30 bitrate=  66.2kbits/s    
frame=  192 fps= 10 q=9.0 size=     149kB time=00:00:18.80 bitrate=  65.0kbits/s    
frame=  197 fps= 10 q=9.0 size=     150kB time=00:00:19.30 bitrate=  63.8kbits/s    
frame=  203 fps= 10 q=18.0 size=     188kB time=00:00:19.90 bitrate=  77.2kbits/s    
frame=  208 fps= 10 q=11.0 size=     251kB time=00:00:20.40 bitrate= 100.8kbits/s    
frame=  214 fps= 10 q=9.0 size=     266kB time=00:00:21.00 bitrate= 103.9kbits/s    
frame=  220 fps= 10 q=9.0 size=     272kB time=00:00:21.60 bitrate= 103.0kbits/s    
frame=  225 fps= 10 q=16.0 size=     296kB time=00:00:22.10 bitrate= 109.6kbits/s    
frame=  230 fps= 10 q=10.0 size=     339kB time=00:00:22.60 bitrate= 122.7kbits/s    
frame=  236 fps= 10 q=11.0 size=     369kB time=00:00:23.20 bitrate= 130.4kbits/s    
frame=  242 fps= 10 q=9.0 size=     387kB time=00:00:23.80 bitrate= 133.1kbits/s    
frame=  247 fps= 10 q=9.0 size=     389kB time=00:00:24.30 bitrate= 131.0kbits/s    
frame=  252 fps= 10 q=16.0 size=     408kB time=00:00:24.80 bitrate= 134.8kbits/s    
frame=  257 fps= 10 q=15.0 size=     682kB time=00:00:25.30 bitrate= 220.9kbits/s    
frame=  263 fps= 10 q=9.0 size=     685kB time=00:00:25.90 bitrate= 216.6kbits/s    
frame=  268 fps= 10 q=9.0 size=     686kB time=00:00:26.40 bitrate= 212.8kbits/s    
frame=  274 fps= 10 q=16.0 size=     772kB time=00:00:27.00 bitrate= 234.1kbits/s    
frame=  279 fps= 10 q=10.0 size=     867kB time=00:00:27.50 bitrate= 258.3kbits/s    
frame=  285 fps= 10 q=9.0 size=     893kB time=00:00:28.10 bitrate= 260.4kbits/s    
frame=  290 fps= 10 q=9.0 size=     894kB time=00:00:28.60 bitrate= 256.0kbits/s    
frame=  295 fps= 10 q=9.0 size=     894kB time=00:00:29.10 bitrate= 251.8kbits/s    
frame=  301 fps= 10 q=9.0 size=     895kB time=00:00:29.70 bitrate= 246.9kbits/s    
frame=  306 fps= 10 q=16.0 size=     899kB time=00:00:30.20 bitrate= 243.9kbits/s    
frame=  312 fps= 10 q=10.0 size=     945kB time=00:00:30.80 bitrate= 251.3kbits/s    
frame=  318 fps= 10 q=9.0 size=     947kB time=00:00:31.40 bitrate= 247.2kbits/s    
frame=  324 fps= 10 q=9.0 size=     948kB time=00:00:32.00 bitrate= 242.6kbits/s    
frame=  329 fps= 10 q=9.0 size=     948kB time=00:00:32.50 bitrate= 239.0kbits/s    
frame=  335 fps= 10 q=9.0 size=     949kB time=00:00:33.10 bitrate= 234.8kbits/s    
frame=  341 fps= 10 q=9.0 size=     949kB time=00:00:33.70 bitrate= 230.7kbits/s    
frame=  346 fps= 10 q=9.0 size=     949kB time=00:00:34.20 bitrate= 227.4kbits/s    
frame=  352 fps= 10 q=9.0 size=     950kB time=00:00:34.80 bitrate= 223.5kbits/s    
frame=  357 fps= 10 q=9.0 size=     950kB time=00:00:35.30 bitrate= 220.5kbits/s    
frame=  363 fps= 10 q=9.0 size=     950kB time=00:00:35.90 bitrate= 216.9kbits/s    
frame=  369 fps= 10 q=9.0 size=     951kB time=00:00:36.50 bitrate= 213.4kbits/s    
frame=  374 fps= 10 q=9.0 size=     951kB time=00:00:37.00 bitrate= 210.6kbits/s    
frame=  380 fps= 10 q=9.0 size=     952kB time=00:00:37.60 bitrate= 207.3kbits/s    
frame=  386 fps= 10 q=9.0 size=     952kB time=00:00:38.20 bitrate= 204.2kbits/s    
frame=  392 fps= 10 q=9.0 size=     953kB time=00:00:38.80 bitrate= 201.1kbits/s    
frame=  397 fps= 10 q=9.0 size=     953kB time=00:00:39.30 bitrate= 198.6kbits/s    
frame=  403 fps= 10 q=9.0 size=     953kB time=00:00:39.90 bitrate= 195.7kbits/s    
frame=  409 fps= 10 q=9.0 size=     954kB time=00:00:40.50 bitrate= 192.9kbits/s    
frame=  414 fps= 10 q=10.0 size=     957kB time=00:00:41.00 bitrate= 191.1kbits/s    
frame=  420 fps= 10 q=12.0 size=     964kB time=00:00:41.60 bitrate= 189.9kbits/s    
frame=  425 fps= 10 q=12.0 size=     981kB time=00:00:42.10 bitrate= 190.9kbits/s    
frame=  430 fps= 10 q=9.0 size=     995kB time=00:00:42.60 bitrate= 191.4kbits/s    
frame=  436 fps= 10 q=10.0 size=    1002kB time=00:00:43.20 bitrate= 190.0kbits/s    
frame=  441 fps= 10 q=10.0 size=    1003kB time=00:00:43.70 bitrate= 188.1kbits/s    
frame=  447 fps= 10 q=12.0 size=    1032kB time=00:00:44.30 bitrate= 190.9kbits/s    
frame=  453 fps= 10 q=10.0 size=    1047kB time=00:00:44.90 bitrate= 191.0kbits/s    
frame=  459 fps= 10 q=17.0 size=    1051kB time=00:00:45.50 bitrate= 189.2kbits/s    
frame=  464 fps= 10 q=16.0 size=    1203kB time=00:00:46.00 bitrate= 214.3kbits/s    
frame=  470 fps= 10 q=10.0 size=    1256kB time=00:00:46.60 bitrate= 220.9kbits/s    
frame=  476 fps= 10 q=9.0 size=    1262kB time=00:00:47.20 bitrate= 219.1kbits/s    
frame=  481 fps= 10 q=9.0 size=    1263kB time=00:00:47.70 bitrate= 216.9kbits/s    
frame=  486 fps= 10 q=9.0 size=    1263kB time=00:00:48.20 bitrate= 214.7kbits/s    
frame=  491 fps= 10 q=9.0 size=    1264kB time=00:00:48.70 bitrate= 212.6kbits/s    
frame=  496 fps= 10 q=9.0 size=    1265kB time=00:00:49.20 bitrate= 210.6kbits/s    
frame=  501 fps= 10 q=9.0 size=    1265kB time=00:00:49.70 bitrate= 208.5kbits/s    
frame=  506 fps= 10 q=14.0 size=    1393kB time=00:00:50.20 bitrate= 227.3kbits/s    
frame=  512 fps= 10 q=9.0 size=    1393kB time=00:00:50.80 bitrate= 224.6kbits/s    
frame=  518 fps= 10 q=9.0 size=    1393kB time=00:00:51.40 bitrate= 222.1kbits/s    
frame=  523 fps= 10 q=9.0 size=    1394kB time=00:00:51.90 bitrate= 220.0kbits/s    
frame=  529 fps= 10 q=9.0 size=    1394kB time=00:00:52.50 bitrate= 217.5kbits/s    
frame=  534 fps= 10 q=9.0 size=    1394kB time=00:00:53.00 bitrate= 215.5kbits/s    
frame=  539 fps= 10 q=9.0 size=    1394kB time=00:00:53.50 bitrate= 213.5kbits/s    
frame=  545 fps= 10 q=9.0 size=    1395kB time=00:00:54.10 bitrate= 211.2kbits/s    
frame=  550 fps= 10 q=9.0 size=    1395kB time=00:00:54.60 bitrate= 209.3kbits/s    
frame=  556 fps= 10 q=9.0 size=    1395kB time=00:00:55.20 bitrate= 207.1kbits/s    
frame=  561 fps= 10 q=15.0 size=    1395kB time=00:00:55.70 bitrate= 205.2kbits/s    
frame=  567 fps= 10 q=10.0 size=    1428kB time=00:00:56.30 bitrate= 207.8kbits/s    
frame=  572 fps= 10 q=9.0 size=    1432kB time=00:00:56.80 bitrate= 206.6kbits/s    
frame=  578 fps= 10 q=9.0 size=    1432kB time=00:00:57.40 bitrate= 204.4kbits/s    
frame=  583 fps= 10 q=9.0 size=    1433kB time=00:00:57.90 bitrate= 202.7kbits/s    
--40001LOG 18:08:20:446869800 Trapped SIGTERM or SIGINT so shutting down ffmpeg gracefully...
--40001LOG 18:08:20:464069700 Will kill VID_TOOL_PID=683 ...
frame=  583 fps= 10 q=-1.0 Lsize=    1433kB time=00:00:58.30 bitrate= 201.4kbits/s    
video:1428kB audio:0kB subtitle:0kB other streams:0kB global headers:0kB muxing overhead: 0.328318%
[libx264 @ 0x14f1320] frame I:3     Avg QP:12.00  size:125658
[libx264 @ 0x14f1320] frame P:580   Avg QP: 9.97  size:  1871
[libx264 @ 0x14f1320] mb I  I16..4: 100.0%  0.0%  0.0%
[libx264 @ 0x14f1320] mb P  I16..4:  1.5%  0.0%  0.0%  P16..4:  1.7%  0.0%  0.0%  0.0%  0.0%    skip:96.8%
[libx264 @ 0x14f1320] coded y,uvDC,uvAC intra: 17.0% 11.5% 10.7% inter: 0.7% 0.8% 0.5%
[libx264 @ 0x14f1320] i16 v,h,dc,p: 72% 25%  2%  1%
[libx264 @ 0x14f1320] i8c dc,h,v,p: 81% 15%  3%  1%
[libx264 @ 0x14f1320] kb/s:200.62
Exiting normally, received signal 2.
--40001LOG 18:08:21:494462200 Tried to kill -SIGTERM VID_TOOL_PID=683
--40001LOG 18:08:21:501985700 Waiting up to 6s for VID_TOOL_PID=683 to end with SIGTERM...
--40001LOG 18:08:21:597421200 wait_pid successfully managed to SIGTERM:VID_TOOL_PID=683 within less than 6s
--40001LOG 18:08:21:618301100 Will try to fix the videos...
--40001LOG 18:08:22:188602500 Fixing perms for /home/seluser/videos/vid_chrome_or_firefox_40001.mkv*
--40001LOG 18:08:22:235859400 Changing video encoding from mkv to mp4...
--40001LOG 18:08:32:629154900 Conversion from mkv to mp4 succeeded!
--40001LOG 18:08:32:652772300 Cleaning up /home/seluser/videos/vid_chrome_or_firefox_40001.mkv ...
--40001LOG 18:08:32:693488000 Optimizing /home/seluser/videos/vid_chrome_or_firefox_40001.mp4 for HTTP streaming...
--40001LOG 18:08:32:859561700 Succeeded to mp4box_retry.sh within 8s
--40001LOG 18:08:32:889517800 ffmpeg shutdown complete.
